<svg width="512" height="512" viewBox="0 0 272 272" fill="none" xmlns="http://www.w3.org/2000/svg">
  <path d="M39.0385 5.63712c7.5162-7.51615 19.7023-7.51616 27.2184-.00001L266.363 205.743c7.516 7.516 7.516 19.702 0 27.218l-33.402 33.402c-7.516 7.516-19.702 7.516-27.218 0L5.63711 66.2569c-7.51615-7.5161-7.51614-19.7022.00001-27.2184L39.0385 5.63712z" fill="#000" />
  <path d="M170.887 134.515c7.516 7.516 7.516 19.702 0 27.218L66.2569 266.363c-7.5161 7.516-19.7022 7.516-27.2184 0L5.63712 232.961c-7.51615-7.516-7.51615-19.702 0-27.218L110.267 101.113c7.516-7.5158 19.702-7.5158 27.218 0l33.402 33.402zM249.662 82.9576c-16.74 16.7397-43.88 16.7397-60.62 0-16.739-16.7397-16.739-43.8801 0-60.6198 16.74-16.73968 43.88-16.73968 60.62 0 16.74 16.7397 16.74 43.8801 0 60.6198z" fill="#000" />
</svg>
